<svg width="53" height="53" viewBox="6 6 53 53" fill="none" xmlns="http://www.w3.org/2000/svg">
<rect x="6" y="6" width="53" height="53" rx="10" fill="#024443"/>
<path d="M34.4992 40.198L30.8011 36.4999L37.4999 29.8011L41.198 33.4992C42.0522 34.3534 43.4421 34.3534 44.2963 33.4992C45.1505 32.645 45.1505 31.255 44.2963 30.4008L44.2675 30.372C44.668 30.2872 45.0489 30.0899 45.3593 29.7799C46.2136 28.9257 46.2136 27.5357 45.3593 26.6815L42.9896 24.3118L43.4329 23.8685C44.0674 23.2339 44.0674 22.2017 43.4329 21.5671C42.7983 20.9326 41.7661 20.9326 41.1315 21.5671L40.6882 22.0104L38.3185 19.6407C37.4643 18.7864 36.0743 18.7864 35.2201 19.6407C34.9097 19.9511 34.7128 20.332 34.628 20.7325L34.5992 20.7037C33.745 19.8495 32.355 19.8495 31.5008 20.7037C30.6466 21.5579 30.6466 22.9478 31.5008 23.802L35.1989 27.5001L28.5001 34.1989L24.802 30.5008C23.9478 29.6466 22.5579 29.6466 21.7037 30.5008C20.8495 31.355 20.8495 32.745 21.7037 33.5992L21.7325 33.628C21.332 33.7128 20.9511 33.9101 20.6407 34.2201C19.7864 35.0743 19.7864 36.4643 20.6407 37.3185L23.0104 39.6882L22.5671 40.1315C21.9326 40.7661 21.9326 41.7983 22.5671 42.4329C23.2017 43.0674 24.2339 43.0674 24.8685 42.4329L25.3118 41.9896L27.6815 44.3593C28.5357 45.2136 29.9257 45.2136 30.7799 44.3593C31.0903 44.0489 31.2872 43.668 31.372 43.2675L31.4008 43.2963C32.255 44.1505 33.645 44.1505 34.4992 43.2963C35.3534 42.4421 35.3534 41.0522 34.4992 40.198ZM41.8389 22.2741C42.0834 22.0296 42.4811 22.0296 42.7259 22.2741C42.9704 22.5185 42.9704 22.9162 42.7259 23.1611L42.2826 23.6044L41.3956 22.7174L41.8389 22.2741ZM35.9275 20.3476C36.3916 19.8835 37.147 19.8835 37.6115 20.3476L39.9813 22.7174L42.2826 25.0187L44.6524 27.3885C45.1165 27.8526 45.1165 28.608 44.6524 29.0725C44.1883 29.5366 43.4329 29.5366 42.9684 29.0725L35.9275 22.0316C35.4634 21.5675 35.4634 20.8121 35.9275 20.3476ZM32.2078 23.0943C31.7437 22.6302 31.7437 21.8748 32.2078 21.4103C32.6719 20.9458 33.4273 20.9462 33.8918 21.4103L35.2201 22.7386L42.261 29.7795L43.5893 31.1078C44.0534 31.5719 44.0534 32.3273 43.5893 32.7918C43.1252 33.2563 42.3694 33.2559 41.9053 32.7918L38.2072 29.0937L35.9059 26.7924L32.2078 23.0943ZM35.9059 28.2071L36.7929 29.0941L30.0941 35.7929L29.2071 34.9059L35.9059 28.2071ZM24.1607 41.7259C23.9162 41.9704 23.5185 41.9704 23.2737 41.7259C23.0288 41.4815 23.0292 41.0838 23.2737 40.8389L23.717 40.3956L24.604 41.2826L24.1607 41.7259ZM30.0725 43.652C29.6084 44.1161 28.853 44.1161 28.3885 43.652L26.0187 41.2822L23.7174 38.9809L21.3476 36.6111C20.8835 36.147 20.8835 35.3916 21.3476 34.9271C21.8117 34.4626 22.5671 34.463 23.0316 34.9271L30.0725 41.968C30.5366 42.4321 30.5366 43.1875 30.0725 43.652ZM32.1082 42.5893L30.7799 41.261L23.739 34.2201L22.4107 32.8918C21.9466 32.4277 21.9466 31.6723 22.4107 31.2078C22.8748 30.7433 23.6302 30.7437 24.0947 31.2078L27.7928 34.9059L30.0941 37.2072L33.7922 40.9053C34.2563 41.3694 34.2563 42.1248 33.7922 42.5893C33.3281 43.0538 32.5727 43.0534 32.1082 42.5893Z" fill="white"/>
</svg>
