<svg width="93" height="18" viewBox="0 0 93 18" fill="none" xmlns="http://www.w3.org/2000/svg">
<g clip-path="url(#clip0_4036_601)">
<path d="M23.4568 0.419922H30.1252C31.7072 0.419922 32.9656 0.822156 33.9052 1.62663C34.8448 2.4311 35.3146 3.50707 35.3146 4.85205C35.3146 5.73948 35.0917 6.51126 34.6458 7.16741C34.2 7.82355 33.584 8.32383 32.8026 8.67076C33.7877 8.98249 34.5667 9.5054 35.1396 10.2344C35.7101 10.966 35.9977 11.8233 35.9977 12.8088C35.9977 14.287 35.4848 15.466 34.4589 16.3434C33.433 17.2233 32.0835 17.6607 30.408 17.6607H23.4568V0.419922ZM30.0317 2.06908H25.2641V7.93165H30.0317C31.0959 7.93165 31.9445 7.66517 32.5797 7.13221C33.2148 6.59925 33.5312 5.8878 33.5312 5.00288C33.5312 4.11797 33.2148 3.40651 32.5797 2.87104C31.9469 2.33808 31.0959 2.0716 30.0317 2.0716V2.06908ZM30.2666 16.009C31.4411 16.009 32.3831 15.7124 33.0974 15.1216C33.8093 14.5308 34.1664 13.7414 34.1664 12.7585C34.1664 11.7755 33.8093 10.9861 33.0974 10.3928C32.3855 9.80205 31.4411 9.5054 30.2666 9.5054H25.2641V16.0065H30.2666V16.009Z" fill="white"/>
<path d="M42.2657 17.8815C40.981 17.8815 39.9359 17.5371 39.1305 16.8457C38.3251 16.1569 37.92 15.2619 37.92 14.1608C37.92 13.0597 38.3419 12.0968 39.188 11.4156C40.0342 10.7343 41.1751 10.3924 42.6157 10.3924C43.2413 10.3924 43.8478 10.4653 44.435 10.6136C45.0223 10.7619 45.5664 10.9681 46.0673 11.2295V9.60299C46.0673 8.61752 45.8013 7.8759 45.2692 7.37311C44.737 6.87283 43.9628 6.62143 42.9441 6.62143C42.364 6.62143 41.7816 6.70691 41.1943 6.88037C40.607 7.05383 39.9623 7.32785 39.2576 7.70495L38.6008 6.30216C39.4469 5.87478 40.2283 5.56305 40.9498 5.36696C41.6689 5.17087 42.3904 5.07031 43.1095 5.07031C44.5956 5.07031 45.7438 5.43987 46.5491 6.17897C47.3545 6.91808 47.7596 7.97646 47.7596 9.35663V17.6577H46.0697V16.451C45.5376 16.9262 44.9551 17.2857 44.32 17.522C43.6848 17.7608 43.0016 17.879 42.2657 17.879V17.8815ZM39.5883 14.1131C39.5883 14.8019 39.8664 15.365 40.4225 15.7999C40.9786 16.2348 41.6953 16.4536 42.5702 16.4536C43.2749 16.4536 43.9173 16.3379 44.4949 16.1091C45.075 15.8804 45.5975 15.5184 46.0673 15.0256V12.7103C45.5808 12.3658 45.0606 12.1144 44.5045 11.9586C43.9484 11.8027 43.3348 11.7248 42.6612 11.7248C41.7216 11.7248 40.9738 11.9435 40.4177 12.3784C39.8616 12.8133 39.5835 13.3915 39.5835 14.1156L39.5883 14.1131Z" fill="white"/>
<path d="M52.4121 0V17.6581H50.6743V0.419832L52.4121 0Z" fill="white"/>
<path d="M54.6174 17.6579V16.23L61.7101 6.94587H54.6893V5.31934H63.8242V6.72213L56.71 16.0313H63.8961V17.6579H54.6198H54.6174Z" fill="white"/>
<path d="M69.9532 17.8815C68.6685 17.8815 67.6234 17.5371 66.818 16.8457C66.0126 16.1569 65.6075 15.2619 65.6075 14.1608C65.6075 13.0597 66.0294 12.0968 66.8755 11.4156C67.7217 10.7343 68.8626 10.3924 70.3032 10.3924C70.9288 10.3924 71.5353 10.4653 72.1225 10.6136C72.7098 10.7619 73.2539 10.9681 73.7548 11.2295V9.60299C73.7548 8.61752 73.4888 7.8759 72.9567 7.37311C72.4245 6.87283 71.6503 6.62143 70.6316 6.62143C70.0515 6.62143 69.4691 6.70691 68.8818 6.88037C68.2945 7.05383 67.6498 7.32785 66.9451 7.70495L66.2883 6.30216C67.1344 5.87478 67.9158 5.56305 68.6373 5.36696C69.3564 5.17087 70.0779 5.07031 70.797 5.07031C72.2831 5.07031 73.4313 5.43987 74.2366 6.17897C75.042 6.91808 75.4471 7.97646 75.4471 9.35663V17.6577H73.7572V16.451C73.2251 16.9262 72.6427 17.2857 72.0075 17.522C71.3723 17.7608 70.6891 17.879 69.9532 17.879V17.8815ZM67.2758 14.1131C67.2758 14.8019 67.5539 15.365 68.11 15.7999C68.6661 16.2348 69.3828 16.4536 70.2577 16.4536C70.9624 16.4536 71.6048 16.3379 72.1824 16.1091C72.7625 15.8804 73.285 15.5184 73.7548 15.0256V12.7103C73.2683 12.3658 72.7481 12.1144 72.192 11.9586C71.6359 11.8027 71.0223 11.7248 70.3487 11.7248C69.4091 11.7248 68.6613 11.9435 68.1052 12.3784C67.5491 12.8133 67.271 13.3915 67.271 14.1156L67.2758 14.1131Z" fill="white"/>
<path d="M78.3594 17.6586V5.32003H80.0972V6.7731C80.5502 6.215 81.0919 5.79265 81.7175 5.50606C82.3431 5.21947 83.0407 5.07617 83.8077 5.07617C85.138 5.07617 86.2262 5.51863 87.0724 6.40606C87.9185 7.29349 88.3404 8.44237 88.3404 9.85522V17.6636H86.6265V10.2248C86.6265 9.14126 86.3293 8.27896 85.7348 7.6379C85.1404 6.99684 84.3422 6.67757 83.3403 6.67757C82.6356 6.67757 82.0052 6.84098 81.4491 7.17031C80.893 7.49964 80.4423 7.96723 80.0996 8.5731V17.6611H78.3618L78.3594 17.6586Z" fill="white"/>
<path d="M92.988 5.31934H91.2502V17.6579H92.988V5.31934Z" fill="white"/>
<path d="M93 0.884766H91.2502V2.71996H93V0.884766Z" fill="white"/>
<path d="M16.9418 0.834915C17.1911 0.573463 17.0137 0.125977 16.6613 0.125977H0.3955C0.177376 0.125977 0 0.31201 0 0.540781V8.62821C0 8.99776 0.429057 9.1838 0.675945 8.91983L8.35344 0.78715C8.47329 0.658938 8.68182 0.74944 8.68182 0.930446V9.08827V9.63883V17.588C8.68182 17.9601 9.11088 18.1436 9.36016 17.8796L17.1216 9.72179C17.3061 9.52821 17.1743 9.19888 16.9154 9.19888H9.37934C9.22833 9.19888 9.15403 9.00782 9.25949 8.89721L16.9418 0.834915Z" fill="#FF611B"/>
</g>
<defs>
<clipPath id="clip0_4036_601">
<rect width="93" height="18" fill="white"/>
</clipPath>
</defs>
</svg>
